<svg width="50" height="50" viewBox="0 0 50 50" fill="none" xmlns="http://www.w3.org/2000/svg">
<rect width="50" height="50" rx="25" fill="#40DDB6"/>
<path d="M29.8804 15.9122C31.1961 15.916 32.4567 16.421 33.387 17.3168C34.3173 18.2127 34.8417 19.4266 34.8456 20.6936V30.2552C34.8417 31.5221 34.3173 32.7361 33.387 33.6319C32.4567 34.5278 31.1961 35.0328 29.8804 35.0365H19.951C18.6354 35.0328 17.3747 34.5278 16.4444 33.6319C15.5141 32.7361 14.9897 31.5221 14.9858 30.2552V20.6936C14.9897 19.4266 15.5141 18.2127 16.4444 17.3168C17.3747 16.421 18.6354 15.916 19.951 15.9122H29.8804V15.9122ZM29.8804 14H19.951C16.1279 14 13 17.012 13 20.6936V30.2552C13 33.9367 16.1279 36.9488 19.951 36.9488H29.8804C33.7035 36.9488 36.8314 33.9367 36.8314 30.2552V20.6936C36.8314 17.012 33.7035 14 29.8804 14V14Z" fill="white"/>
<path d="M31.3695 20.6938C31.0749 20.6938 30.787 20.6097 30.542 20.4521C30.2971 20.2945 30.1062 20.0705 29.9934 19.8084C29.8807 19.5463 29.8512 19.2579 29.9087 18.9797C29.9662 18.7014 30.108 18.4459 30.3163 18.2453C30.5246 18.0447 30.79 17.9081 31.079 17.8528C31.3679 17.7974 31.6674 17.8258 31.9395 17.9344C32.2117 18.0429 32.4443 18.2268 32.608 18.4626C32.7716 18.6985 32.859 18.9758 32.859 19.2595C32.8594 19.448 32.8212 19.6347 32.7465 19.8089C32.6718 19.9831 32.5621 20.1413 32.4237 20.2746C32.2853 20.4079 32.1209 20.5135 31.94 20.5854C31.7591 20.6574 31.5652 20.6942 31.3695 20.6938V20.6938ZM24.9154 21.6496C25.701 21.6496 26.4689 21.874 27.1221 22.2943C27.7753 22.7146 28.2845 23.3119 28.5851 24.0109C28.8857 24.7098 28.9644 25.4789 28.8111 26.2208C28.6579 26.9628 28.2796 27.6443 27.7241 28.1793C27.1685 28.7142 26.4608 29.0785 25.6903 29.2261C24.9198 29.3737 24.1211 29.2979 23.3953 29.0084C22.6695 28.7189 22.0492 28.2287 21.6127 27.5997C21.1763 26.9706 20.9433 26.2311 20.9433 25.4746C20.9444 24.4605 21.3633 23.4882 22.1079 22.7712C22.8526 22.0541 23.8623 21.6507 24.9154 21.6496V21.6496ZM24.9154 19.7374C23.737 19.7374 22.5851 20.0739 21.6054 20.7043C20.6256 21.3347 19.862 22.2308 19.411 23.2791C18.9601 24.3274 18.8421 25.481 19.072 26.5939C19.3019 27.7068 19.8693 28.7291 20.7025 29.5314C21.5358 30.3338 22.5973 30.8802 23.7531 31.1016C24.9088 31.3229 26.1067 31.2093 27.1953 30.7751C28.284 30.3409 29.2145 29.6055 29.8691 28.662C30.5238 27.7186 30.8732 26.6093 30.8732 25.4746C30.8732 23.953 30.2455 22.4937 29.1282 21.4178C28.0109 20.3419 26.4955 19.7374 24.9154 19.7374V19.7374Z" fill="white"/>
</svg>
