<svg width="100" height="100" viewBox="0 0 100 100" fill="none" xmlns="http://www.w3.org/2000/svg">
<rect width="100" height="100" fill="#DAA520"/>
<path d="M77.1293 16V15.0412L80.7301 11.0994C81.1527 10.6378 81.5007 10.2365 81.7741 9.8956C82.0476 9.55114 82.25 9.22798 82.3814 8.92614C82.5163 8.62074 82.5838 8.30114 82.5838 7.96733C82.5838 7.58381 82.4915 7.25178 82.3068 6.97124C82.1257 6.6907 81.8771 6.47408 81.5611 6.32138C81.245 6.16868 80.8899 6.09233 80.4957 6.09233C80.0767 6.09233 79.7109 6.17933 79.3984 6.35334C79.0895 6.52379 78.8498 6.76349 78.6793 7.07244C78.5124 7.38139 78.429 7.74361 78.429 8.15909H77.1719C77.1719 7.51989 77.3192 6.95881 77.614 6.47585C77.9087 5.9929 78.31 5.61648 78.8178 5.34659C79.3292 5.0767 79.9027 4.94176 80.5384 4.94176C81.1776 4.94176 81.744 5.0767 82.2376 5.34659C82.7312 5.61648 83.1183 5.98047 83.3988 6.43857C83.6793 6.89666 83.8196 7.40625 83.8196 7.96733C83.8196 8.36861 83.7468 8.76101 83.6012 9.14453C83.4592 9.5245 83.2106 9.94886 82.8555 10.4176C82.5039 10.8828 82.0156 11.451 81.3906 12.1222L78.9403 14.7429V14.8281H84.0114V16H77.1293Z" fill="black"/>
<path d="M18.8153 89.1491C18.1122 89.1491 17.4854 89.0284 16.935 88.7869C16.3881 88.5455 15.9531 88.2099 15.63 87.7802C15.3104 87.3469 15.1364 86.8445 15.108 86.2727H16.4503C16.4787 86.6243 16.5994 86.9279 16.8125 87.1836C17.0256 87.4357 17.3043 87.631 17.6488 87.7695C17.9933 87.908 18.375 87.9773 18.794 87.9773C19.2628 87.9773 19.6783 87.8956 20.0405 87.7322C20.4027 87.5689 20.6868 87.3416 20.8928 87.0504C21.0987 86.7592 21.2017 86.4219 21.2017 86.0384C21.2017 85.6371 21.1023 85.2837 20.9034 84.9783C20.7045 84.6694 20.4134 84.4279 20.0298 84.2539C19.6463 84.0799 19.1776 83.9929 18.6236 83.9929H17.75V82.821H18.6236C19.0568 82.821 19.4368 82.7429 19.7635 82.5866C20.0938 82.4304 20.3512 82.2102 20.5359 81.9261C20.7241 81.642 20.8182 81.3082 20.8182 80.9247C20.8182 80.5554 20.7365 80.234 20.5732 79.9606C20.4098 79.6871 20.179 79.4741 19.8807 79.3214C19.5859 79.1687 19.2379 79.0923 18.8366 79.0923C18.4602 79.0923 18.1051 79.1616 17.7713 79.3001C17.4411 79.435 17.1712 79.6321 16.9616 79.8913C16.7521 80.147 16.6385 80.456 16.6207 80.8182H15.3423C15.3636 80.2464 15.5359 79.7457 15.859 79.3161C16.1822 78.8828 16.6048 78.5455 17.1268 78.304C17.6523 78.0625 18.2294 77.9418 18.858 77.9418C19.5327 77.9418 20.1115 78.0785 20.5945 78.3519C21.0774 78.6218 21.4485 78.9787 21.7077 79.4226C21.967 79.8665 22.0966 80.3459 22.0966 80.8608C22.0966 81.4751 21.935 81.9989 21.6119 82.4322C21.2923 82.8654 20.8572 83.1655 20.3068 83.3324V83.4176C20.9957 83.5312 21.5337 83.8242 21.9208 84.2965C22.3079 84.7653 22.5014 85.3459 22.5014 86.0384C22.5014 86.6314 22.3398 87.1641 22.0167 87.6364C21.6971 88.1051 21.2603 88.4744 20.7063 88.7443C20.1523 89.0142 19.522 89.1491 18.8153 89.1491Z" fill="black"/>
<path d="M75.8736 86.7628V85.6761L80.6676 78.0909H81.456V79.7741H80.9233L77.3011 85.5057V85.5909H83.7571V86.7628H75.8736ZM81.0085 89V86.4325V85.9265V78.0909H82.2656V89H81.0085Z" fill="black"/>
<line x1="6" y1="5" x2="6" y2="95" stroke="black" stroke-width="2"/>
<path d="M95 95L5 95" stroke="black" stroke-width="2"/>
<path d="M18.9645 5.09091V16H17.6435V6.47585H17.5795L14.9162 8.24432V6.90199L17.6435 5.09091H18.9645Z" fill="black"/>
<path d="M6.35355 3.64645C6.15829 3.45118 5.84171 3.45118 5.64645 3.64645L2.46447 6.82843C2.2692 7.02369 2.2692 7.34027 2.46447 7.53553C2.65973 7.7308 2.97631 7.7308 3.17157 7.53553L6 4.70711L8.82843 7.53553C9.02369 7.7308 9.34027 7.7308 9.53553 7.53553C9.7308 7.34027 9.7308 7.02369 9.53553 6.82843L6.35355 3.64645ZM6.5 17L6.5 4H5.5L5.5 17H6.5Z" fill="black"/>
<path d="M96.3536 95.3536C96.5488 95.1583 96.5488 94.8417 96.3536 94.6464L93.1716 91.4645C92.9763 91.2692 92.6597 91.2692 92.4645 91.4645C92.2692 91.6597 92.2692 91.9763 92.4645 92.1716L95.2929 95L92.4645 97.8284C92.2692 98.0237 92.2692 98.3403 92.4645 98.5355C92.6597 98.7308 92.9763 98.7308 93.1716 98.5355L96.3536 95.3536ZM83 95.5H96V94.5H83V95.5Z" fill="black"/>
<path d="M49.5 36C41.4926 36 35 42.4926 35 50.5C35 58.5074 41.4926 65 49.5 65C57.5074 65 64 58.5074 64 50.5C64 42.4926 57.5074 36 49.5 36ZM42.25 47.5547C42.2583 47.1481 42.4256 46.7611 42.7161 46.4765C43.0065 46.1919 43.3969 46.0325 43.8036 46.0325C44.2102 46.0325 44.6006 46.1919 44.8911 46.4765C45.1815 46.7611 45.3488 47.1481 45.3571 47.5547C45.3488 47.9612 45.1815 48.3483 44.8911 48.6329C44.6006 48.9175 44.2102 49.0769 43.8036 49.0769C43.3969 49.0769 43.0065 48.9175 42.7161 48.6329C42.4256 48.3483 42.2583 47.9612 42.25 47.5547ZM49.5 56.3583C46.7327 56.3583 44.4638 54.18 44.3214 51.4516C44.3197 51.4165 44.3251 51.3814 44.3373 51.3485C44.3495 51.3156 44.3683 51.2855 44.3925 51.26C44.4168 51.2346 44.4459 51.2144 44.4782 51.2006C44.5105 51.1867 44.5452 51.1796 44.5804 51.1797H46.1372C46.2731 51.1797 46.3896 51.2833 46.3993 51.4192C46.5223 53.0213 47.8655 54.2868 49.5 54.2868C51.1345 54.2868 52.4809 53.0213 52.6007 51.4192C52.6104 51.2833 52.7269 51.1797 52.8628 51.1797H54.4196C54.4548 51.1796 54.4895 51.1867 54.5218 51.2006C54.5541 51.2144 54.5832 51.2346 54.6075 51.26C54.6317 51.2855 54.6505 51.3156 54.6627 51.3485C54.6749 51.3814 54.6803 51.4165 54.6786 51.4516C54.5362 54.18 52.2673 56.3583 49.5 56.3583ZM55.1964 49.1083C54.7899 49.1 54.4028 48.9326 54.1182 48.6422C53.8336 48.3517 53.6742 47.9613 53.6742 47.5547C53.6742 47.1481 53.8336 46.7576 54.1182 46.4672C54.4028 46.1767 54.7899 46.0094 55.1964 46.0011C55.603 46.0094 55.9901 46.1767 56.2746 46.4672C56.5592 46.7576 56.7186 47.1481 56.7186 47.5547C56.7186 47.9613 56.5592 48.3517 56.2746 48.6422C55.9901 48.9326 55.603 49.1 55.1964 49.1083Z" fill="black"/>
</svg>
